<svg width="16" height="16" viewBox="0 0 16 16" fill="none" xmlns="http://www.w3.org/2000/svg">
<g clip-path="url(#clip0_152_1228)">
<path d="M10.6668 14V12.6667C10.6668 11.9594 10.3859 11.2811 9.88578 10.781C9.38568 10.281 8.70741 10 8.00016 10H4.00016C3.29292 10 2.61464 10.281 2.11454 10.781C1.61445 11.2811 1.3335 11.9594 1.3335 12.6667V14" stroke="#D4A574" stroke-width="1.33333" stroke-linecap="round" stroke-linejoin="round"/>
<path d="M6.00016 7.33333C7.47292 7.33333 8.66683 6.13943 8.66683 4.66667C8.66683 3.19391 7.47292 2 6.00016 2C4.5274 2 3.3335 3.19391 3.3335 4.66667C3.3335 6.13943 4.5274 7.33333 6.00016 7.33333Z" stroke="#D4A574" stroke-width="1.33333" stroke-linecap="round" stroke-linejoin="round"/>
<path d="M10.6665 7.33333L11.9998 8.66667L14.6665 6" stroke="#D4A574" stroke-width="1.33333" stroke-linecap="round" stroke-linejoin="round"/>
</g>
<defs>
<clipPath id="clip0_152_1228">
<rect width="16" height="16" fill="white"/>
</clipPath>
</defs>
</svg>
